<?xml version="1.0" standalone="no"?>
<!DOCTYPE svg PUBLIC "-//W3C//DTD SVG 20010904//EN"
 "http://www.w3.org/TR/2001/REC-SVG-20010904/DTD/svg10.dtd">
<svg version="1.0" xmlns="http://www.w3.org/2000/svg"
 width="1024.000000pt" height="1024.000000pt" viewBox="0 0 1024.000000 1024.000000"
 preserveAspectRatio="xMidYMid meet">

<g transform="translate(0.000000,1024.000000) scale(0.100000,-0.100000)"
fill="#000000" stroke="none">
<path d="M6813 7573 c15 -2 39 -2 55 0 15 2 2 4 -28 4 -30 0 -43 -2 -27 -4z"/>
<path d="M6907 7562 c19 -12 -25 -92 -52 -92 -11 0 -30 -7 -42 -15 -12 -8 -28
-12 -37 -9 -9 4 -16 1 -16 -6 0 -9 -11 -10 -37 -5 -21 4 -46 8 -55 7 -12 0
-15 6 -13 20 3 12 8 24 12 27 5 3 17 17 27 31 11 14 3 9 -17 -12 -87 -89 -75
-250 27 -332 33 -27 47 -31 109 -34 67 -3 76 -1 127 30 71 43 105 105 105 193
0 48 -6 70 -28 107 -26 44 -88 98 -112 98 -5 0 -5 -4 2 -8z m43 -31 c0 -4 -7
-8 -15 -8 -8 0 -15 6 -15 13 0 8 6 11 15 8 8 -4 15 -9 15 -13z"/>
<path d="M4660 6936 c0 -2 8 -10 18 -17 15 -13 16 -12 3 4 -13 16 -21 21 -21
13z"/>
<path d="M4593 6223 c9 -2 25 -2 35 0 9 3 1 5 -18 5 -19 0 -27 -2 -17 -5z"/>
<path d="M3315 6123 c-11 -3 -24 -9 -30 -15 -6 -6 -4 -7 6 -3 23 9 32 -10 14
-25 -8 -7 -15 -19 -15 -26 0 -15 -2 -16 -40 -18 -17 -1 -24 4 -22 14 1 9 -6 6
-18 -9 -11 -12 -17 -27 -14 -32 3 -5 1 -9 -4 -9 -19 0 -23 -97 -6 -139 27 -69
118 -131 192 -131 11 0 43 12 71 26 38 20 51 33 56 55 4 16 10 27 14 25 4 -3
8 0 9 7 0 7 4 35 7 63 6 41 3 60 -15 100 -13 27 -32 57 -43 67 -16 14 -17 17
-4 17 9 0 20 -6 24 -12 11 -17 53 -40 53 -30 0 13 -31 37 -77 61 -40 20 -107
26 -158 14z m25 -28 c0 -8 -4 -15 -8 -15 -5 0 -9 7 -9 15 0 8 4 15 9 15 4 0 8
-7 8 -15z"/>
<path d="M3565 5990 c3 -5 8 -10 11 -10 2 0 4 5 4 10 0 6 -5 10 -11 10 -5 0
-7 -4 -4 -10z"/>
<path d="M3582 5935 c0 -16 2 -22 5 -12 2 9 2 23 0 30 -3 6 -5 -1 -5 -18z"/>
<path d="M7220 5194 c-50 -51 -172 -146 -353 -277 -67 -48 -160 -119 -207
-157 -47 -38 -115 -91 -152 -117 l-68 -48 0 -638 0 -637 -172 2 -173 3 0 787
c0 432 -3 790 -7 794 -5 4 -8 -13 -8 -38 l0 -45 -92 -63 c-51 -35 -129 -91
-173 -125 -44 -34 -102 -76 -130 -95 -27 -18 -86 -68 -130 -110 -44 -42 -125
-107 -180 -145 -55 -38 -102 -70 -105 -72 -3 -3 -3 -201 -2 -442 l3 -438 -163
-6 c-89 -4 -166 -3 -171 2 -4 4 -7 231 -5 503 l3 495 -45 -37 c-96 -79 -321
-231 -332 -224 -7 4 -8 3 -4 -4 7 -12 -36 -41 -209 -142 -60 -35 -128 -78
-151 -97 -23 -18 -46 -33 -53 -33 -8 0 -11 -50 -11 -174 0 -95 -3 -201 -6
-235 l-7 -61 -165 0 -165 0 5 564 5 564 -61 -47 c-34 -25 -89 -64 -124 -86
-34 -22 -95 -63 -135 -90 -39 -28 -116 -78 -170 -110 -169 -104 -279 -174
-299 -191 -10 -10 -18 -15 -18 -13 0 2 -2 128 -3 279 -1 151 -6 283 -11 293
-8 18 -19 18 -145 12 -75 -4 -137 -8 -137 -9 -1 0 3 -152 8 -336 10 -388 20
-466 78 -587 52 -111 105 -185 187 -264 108 -105 208 -166 363 -223 l85 -31
1685 0 1685 0 75 23 c111 34 178 62 244 101 80 48 212 175 241 233 13 27 33
58 44 70 11 11 30 51 42 87 12 36 31 84 42 105 19 36 22 76 37 460 9 232 15
424 14 427 -2 3 -57 4 -122 1 l-118 -5 -13 32 c-10 24 -12 103 -9 346 2 173 3
315 3 315 0 0 -21 -21 -45 -46z"/>
<path d="M4131 4574 c0 -11 3 -14 6 -6 3 7 2 16 -1 19 -3 4 -6 -2 -5 -13z"/>
<path d="M4133 4280 c0 -47 2 -66 4 -42 2 23 2 61 0 85 -2 23 -4 4 -4 -43z"/>
<path d="M4640 4255 c0 -8 4 -15 9 -15 5 0 14 7 21 15 10 13 9 15 -9 15 -12 0
-21 -6 -21 -15z"/>
<path d="M4600 4220 c0 -17 -7 -20 -40 -20 -33 0 -40 -3 -40 -20 0 -18 7 -20
60 -20 53 0 60 2 60 20 0 11 -4 20 -10 20 -5 0 -10 9 -10 20 0 11 -4 20 -10
20 -5 0 -10 -9 -10 -20z"/>
<path d="M4132 4140 c0 -14 2 -19 5 -12 2 6 2 18 0 25 -3 6 -5 1 -5 -13z"/>
</g>
</svg>
