<svg width="98" height="36" viewBox="0 0 98 36" fill="none" xmlns="http://www.w3.org/2000/svg">
    <g clip-path="url(#clip0_10_11512)">
        <path d="M17.431 20.8274C17.0003 19.911 16.675 19.1595 16.2619 18.5849C15.8517 18.0074 15.2716 17.6538 14.4072 17.5123C15.503 17.2236 16.2853 16.6961 16.927 15.9299C17.5775 15.1638 18.2367 14.1354 19.3003 12.8624C20.4079 11.5423 21.6736 10.4049 22.8515 9.45602C24.0352 8.50717 24.9728 7.81175 25.4709 7.38153C25.969 6.95131 25.8518 6.85407 24.8996 7.08686C22.9951 7.55244 21.0906 8.06811 19.186 8.63683C-1.73129 14.878 -1.73129 21.1191 19.186 27.3602C20.4401 27.7345 21.6971 28.0881 22.9511 28.4152C14.5537 25.2475 9.98875 22.0768 9.25332 18.9091C9.99168 18.9209 10.5425 19.0034 10.9146 19.1566C11.2926 19.3128 11.5475 19.7076 11.8757 20.3353C13.3612 23.1494 17.5218 25.9606 24.3604 28.7747C25.5852 29.0782 26.807 29.364 28.0317 29.6263C22.3475 26.6913 18.8139 23.7594 17.431 20.8244V20.8274ZM11.4245 15.2375C10.985 15.2581 10.5454 15.2758 10.1059 15.2964C10.9879 14.0087 12.5027 12.721 14.6475 11.4362C15.0225 11.3891 15.4005 11.3419 15.7755 11.2948C16.1799 11.2447 16.2472 11.3419 16.0216 11.5865C15.8019 11.8311 15.087 12.3792 14.1933 13.2249C12.8572 14.5332 12.2156 15.2051 11.4245 15.2345V15.2375Z" fill="#605DFF"/>
        <path d="M37.1182 4.81787C35.0144 5.08602 32.9078 5.419 30.804 5.81386C17.03 14.0499 15.2339 22.0679 29.005 29.8325C30.2121 30.08 31.4164 30.3069 32.6235 30.5132C30.7718 29.1813 29.254 27.8435 28.0645 26.5027C29.0138 26.5882 29.9631 26.6678 30.9124 26.7414C32.1518 28.1382 33.6403 29.5408 35.3631 30.9434C36.538 31.1143 37.71 31.2646 38.885 31.3943C30.511 22.4009 28.7442 13.5313 37.1182 4.81787ZM27.9472 22.6042C27.1386 22.5748 26.327 22.5424 25.5183 22.5099C23.7398 18.2549 25.0553 13.9586 29.0987 9.62396C29.172 9.61807 29.2423 9.61217 29.3156 9.60628C25.9636 13.8967 25.6472 18.2313 27.9472 22.6072V22.6042Z" fill="#605DFF"/>
        <path d="M41.6934 26.4379C41.0634 24.3281 40.6708 22.2182 40.5155 20.1054C42.2589 20.1172 43.9993 20.126 45.7427 20.1319C45.6811 18.3786 45.6958 16.6224 45.7866 14.8691C44.0608 14.878 42.3321 14.8897 40.6064 14.9074C40.8027 13.1099 41.1689 11.3154 41.708 9.51788C43.3078 9.47073 44.9076 9.43537 46.5074 9.4118C46.7506 7.60841 47.0729 5.80797 47.4714 4.00458C44.9896 4.07825 42.5079 4.23737 40.0233 4.48784C33.0001 13.4989 33.0001 22.507 40.0233 31.518C42.587 31.7744 45.1508 31.9394 47.7146 32.0072C47.3454 30.1891 47.0465 28.368 46.8209 26.5499C45.1127 26.5293 43.4016 26.491 41.6934 26.4409V26.4379Z" fill="#605DFF"/>
        <path d="M58.0812 4.22558C56.8828 4.14012 55.6844 4.07529 54.486 4.03109C55.7401 8.49242 56.3935 12.9537 56.4462 17.4121C55.5379 12.9508 54.0524 8.46884 52.7749 3.981C51.4974 3.95448 50.2229 3.95153 48.9454 3.96921C47.8672 13.3221 47.8672 22.675 48.9454 32.0278C50.1584 32.0455 51.3714 32.0455 52.5845 32.0219C53.2584 27.3484 53.5953 22.672 53.5953 17.9985C54.5271 22.672 55.1219 27.3367 54.448 31.9689C55.661 31.9247 56.874 31.8569 58.087 31.7715C63.1003 22.5895 63.1003 13.4075 58.087 4.22558H58.0812Z" fill="#605DFF"/>
        <path d="M63.1586 4.71178C61.9602 4.5674 60.7619 4.44363 59.5605 4.34344C65.5612 13.4488 65.5612 22.5541 59.5605 31.6565C60.7589 31.5534 61.9573 31.4296 63.1586 31.2882C71.5589 22.4304 71.5589 13.5726 63.1586 4.71178Z" fill="#605DFF"/>
        <path d="M75.9818 10.452C76.9487 10.5345 77.9127 10.6229 78.8796 10.7172C77.1743 9.20258 74.9387 7.69092 72.1728 6.17631C69.4567 5.61938 66.7435 5.16558 64.0273 4.81787C65.7502 6.50634 67.1449 8.19186 68.2055 9.88032C69.1724 9.93926 70.1364 10.0011 71.1033 10.0689C76.3041 17.0025 74.6838 23.9361 66.2395 30.8727C67.4818 30.6871 68.7212 30.4808 69.9635 30.251C80.4119 23.6503 82.419 17.0526 75.9847 10.452H75.9818Z" fill="#605DFF"/>
        <path d="M81.9346 8.63681C80.707 8.27142 79.4793 7.92665 78.2545 7.60251C84.1614 9.8597 87.7155 12.1788 89.1571 14.5568C86.7135 12.1198 82.3097 9.62691 76.1801 7.078C74.9495 6.77743 73.7189 6.50044 72.4883 6.24408C83.2883 11.7102 88.8348 16.9112 86.4556 21.7939C84.5863 24.2279 80.9238 26.6589 75.4622 29.0929C76.6342 28.8159 77.8033 28.5183 78.9753 28.203C85.2075 25.9664 89.3886 23.7269 91.5187 21.4904C97.2879 16.8346 94.9849 12.5324 81.9376 8.63976L81.9346 8.63681Z" fill="#605DFF"/>
        <path d="M48.9985 0C21.9809 0 0 8.07399 0 17.9985C0 27.9231 21.9809 35.9971 48.9985 35.9971C76.0162 35.9971 97.9971 27.9231 97.9971 17.9985C97.9971 8.07399 76.0191 0 48.9985 0ZM48.9985 35.7053C22.1421 35.7053 0.293001 27.761 0.293001 17.9985C0.293001 8.23606 22.1421 0.294671 48.9985 0.294671C75.855 0.294671 97.7041 8.23606 97.7041 17.9985C97.7041 27.761 75.855 35.7024 48.9985 35.7024V35.7053Z" fill="white"/>
    </g>
    <defs>
        <clipPath id="clip0_10_11512">
            <rect width="98" height="36" fill="white"/>
        </clipPath>
    </defs>
</svg>
